<svg xmlns="http://www.w3.org/2000/svg" width="512" height="512" viewBox="0 0 512 512">
  <defs>
    <linearGradient id="bg" x1="0%" y1="0%" x2="100%" y2="100%">
      <stop offset="0%" style="stop-color:#6366f1"/>
      <stop offset="50%" style="stop-color:#7c3aed"/>
      <stop offset="100%" style="stop-color:#a855f7"/>
    </linearGradient>
    <linearGradient id="note" x1="0%" y1="0%" x2="100%" y2="100%">
      <stop offset="0%" style="stop-color:#ffffff"/>
      <stop offset="100%" style="stop-color:#e0e7ff"/>
    </linearGradient>
  </defs>
  <rect width="512" height="512" rx="112" fill="url(#bg)"/>
  <g transform="translate(130, 96)">
    <path d="M 30 280 L 30 80 C 30 60 50 40 80 30 L 200 10 C 220 5 240 20 240 40 L 240 230 C 240 250 220 265 190 270 L 80 290 C 55 295 40 280 35 260 C 33 250 30 280 30 280 Z"
          fill="none" stroke="url(#note)" stroke-width="18" stroke-linejoin="round"/>
    <circle cx="55" cy="260" r="45" fill="url(#note)" opacity="0.9"/>
    <circle cx="215" cy="235" r="35" fill="url(#note)" opacity="0.7"/>
  </g>
</svg>
